<svg version="1.1" id="Calque_1" xmlns="http://www.w3.org/2000/svg" xmlns:xlink="http://www.w3.org/1999/xlink" x="0px" y="0px" width="114.667px" height="38px" viewBox="0 0 114.667 38" enable-background="new 0 0 114.667 38" xml:space="preserve">
<path fill="#009B30" d="M55.53,22.796c0,0.871-0.707,1.578-1.578,1.578c-0.871,0-1.578-0.707-1.578-1.578  c0-0.872,0.707-1.577,1.578-1.577C54.823,21.219,55.53,21.924,55.53,22.796"/>
<path fill="#FFFFFF" d="M41.877,28.393c-1.127-2.434-2.212-4.979-3.255-7.636c-1.045-2.657-2.018-5.315-2.92-7.973h3.132  c0.361,1.051,0.73,2.124,1.107,3.22c0.376,1.097,0.752,2.174,1.129,3.232c0.376,1.059,0.752,2.084,1.13,3.074  c0.375,0.992,0.744,1.9,1.105,2.727c0.346-0.826,0.707-1.731,1.085-2.715c0.376-0.983,0.755-2.008,1.14-3.074  c0.383-1.066,0.763-2.147,1.14-3.244c0.376-1.096,0.737-2.169,1.083-3.22h3.043c-0.92,2.658-1.898,5.316-2.94,7.973  c-1.039,2.657-2.124,5.202-3.255,7.636H41.877z"/>
<polygon fill="#FFFFFF" points="62.65,25.938 62.65,28.393 59.813,28.393 59.813,11.373 62.65,10.915 "/>
<path fill="#FFFFFF" d="M72.496,16.32c0.901,0,1.659,0.113,2.274,0.338c0.617,0.225,1.107,0.541,1.476,0.945  c0.369,0.406,0.631,0.898,0.788,1.476c0.158,0.58,0.236,1.213,0.236,1.903v7.142c-0.42,0.089-1.053,0.197-1.902,0.326  c-0.85,0.127-1.807,0.19-2.872,0.19c-0.706,0-1.351-0.067-1.937-0.202s-1.084-0.353-1.498-0.654  c-0.414-0.299-0.736-0.689-0.969-1.17s-0.349-1.074-0.349-1.779c0-0.676,0.131-1.247,0.394-1.713  c0.264-0.465,0.619-0.844,1.069-1.137c0.451-0.293,0.974-0.504,1.565-0.631c0.595-0.127,1.214-0.191,1.859-0.191  c0.301,0,0.615,0.02,0.945,0.057c0.33,0.038,0.684,0.102,1.061,0.191v-0.45c0-0.315-0.039-0.616-0.115-0.901  c-0.074-0.285-0.204-0.537-0.393-0.754c-0.188-0.219-0.437-0.387-0.742-0.507c-0.31-0.12-0.695-0.181-1.162-0.181  c-0.629,0-1.209,0.045-1.733,0.135c-0.526,0.091-0.955,0.195-1.285,0.316L68.87,16.86c0.346-0.12,0.85-0.24,1.51-0.36  C71.04,16.38,71.746,16.32,72.496,16.32 M72.721,26.478c0.84,0,1.479-0.044,1.916-0.134v-3.02c-0.151-0.045-0.369-0.09-0.655-0.135  c-0.284-0.045-0.599-0.068-0.946-0.068c-0.3,0-0.605,0.023-0.911,0.068c-0.307,0.045-0.586,0.127-0.834,0.247  c-0.247,0.121-0.446,0.29-0.597,0.507c-0.15,0.219-0.225,0.492-0.225,0.822c0,0.646,0.203,1.094,0.607,1.341  C71.482,26.354,72.03,26.478,72.721,26.478"/>
<path fill="#FFFFFF" d="M92.745,22.514c0,0.946-0.141,1.799-0.418,2.557c-0.277,0.759-0.675,1.408-1.193,1.949  c-0.517,0.539-1.146,0.953-1.881,1.238c-0.734,0.285-1.568,0.428-2.5,0.428c-0.9,0-1.76-0.067-2.578-0.203  c-0.818-0.135-1.498-0.285-2.039-0.451V11.365l2.726-0.451v6.104c0.315-0.165,0.702-0.316,1.159-0.45  c0.459-0.136,0.966-0.203,1.521-0.203c0.827,0,1.565,0.146,2.22,0.439c0.652,0.293,1.196,0.71,1.633,1.25  c0.435,0.54,0.769,1.19,1.002,1.948C92.626,20.761,92.745,21.597,92.745,22.514 M89.951,22.469c0-1.156-0.229-2.072-0.687-2.749  c-0.459-0.675-1.184-1.013-2.172-1.013c-0.451,0-0.877,0.068-1.274,0.203s-0.718,0.285-0.957,0.451v6.778  c0.194,0.046,0.446,0.087,0.755,0.124c0.307,0.038,0.678,0.057,1.115,0.057c1.006,0,1.794-0.342,2.363-1.024  C89.665,24.612,89.951,23.67,89.951,22.469"/>
<path fill="#FFFFFF" d="M99.853,26.434c0.722,0,1.247-0.086,1.577-0.26c0.328-0.172,0.494-0.47,0.494-0.889  c0-0.391-0.176-0.714-0.528-0.969c-0.353-0.256-0.935-0.534-1.746-0.834c-0.495-0.18-0.95-0.372-1.362-0.574  c-0.414-0.203-0.77-0.439-1.07-0.709c-0.301-0.271-0.537-0.598-0.709-0.98c-0.174-0.383-0.26-0.852-0.26-1.407  c0-1.082,0.398-1.934,1.194-2.557c0.795-0.623,1.877-0.935,3.244-0.935c0.688,0,1.351,0.064,1.981,0.192s1.104,0.252,1.418,0.372  l-0.494,2.207c-0.301-0.135-0.684-0.26-1.149-0.371c-0.465-0.112-1.006-0.169-1.622-0.169c-0.555,0-1.007,0.094-1.351,0.281  c-0.347,0.189-0.519,0.479-0.519,0.868c0,0.195,0.034,0.368,0.103,0.519c0.067,0.15,0.183,0.289,0.348,0.416  c0.165,0.129,0.384,0.256,0.653,0.383c0.271,0.128,0.601,0.26,0.99,0.395c0.646,0.24,1.194,0.477,1.645,0.71  c0.452,0.232,0.824,0.495,1.115,0.788c0.294,0.292,0.508,0.627,0.645,1.002c0.133,0.376,0.2,0.826,0.2,1.352  c0,1.127-0.416,1.979-1.25,2.557c-0.832,0.578-2.024,0.866-3.569,0.866c-1.037,0-1.869-0.085-2.5-0.259  c-0.631-0.172-1.074-0.311-1.328-0.416l0.473-2.275c0.404,0.166,0.889,0.324,1.451,0.473C98.489,26.359,99.133,26.434,99.853,26.434  "/>
<path fill="#009C2F" d="M21.558,14.65c0,3.781-3.065,6.847-6.846,6.847c-3.78,0-6.846-3.065-6.846-6.847  c0-3.781,3.066-6.846,6.846-6.846C18.493,7.804,21.558,10.869,21.558,14.65"/>
<path fill="#009C2F" d="M15.763,28.786c0-1.247,1.011-2.258,2.258-2.258c1.248,0,2.259,1.011,2.259,2.258  c0,1.248-1.011,2.26-2.259,2.26C16.774,31.045,15.763,30.034,15.763,28.786"/>
<path fill="#008B30" d="M8.661,17.871c3.1,0.359,6.282-1.013,8.093-3.811c1.075-1.659,1.492-3.555,1.323-5.382  c-3.132-1.755-7.13-0.797-9.109,2.259C7.57,13.096,7.541,15.746,8.661,17.871"/>
<path fill="#009C2F" d="M24.768,27.954c-2.467,0-4.467-2-4.467-4.467s2-4.467,4.467-4.467s4.467,2,4.467,4.467  S27.234,27.954,24.768,27.954"/>
<path fill="#008B30" d="M22.666,19.538c-0.234,2.023,0.662,4.1,2.487,5.281c1.083,0.701,2.32,0.975,3.512,0.863  c1.145-2.043,0.52-4.652-1.474-5.943C25.782,18.827,24.053,18.808,22.666,19.538"/>
</svg>